<?xml version="1.0" standalone="no"?>
<!DOCTYPE svg PUBLIC "-//W3C//DTD SVG 20010904//EN"
 "http://www.w3.org/TR/2001/REC-SVG-20010904/DTD/svg10.dtd">
<svg version="1.0" xmlns="http://www.w3.org/2000/svg"
 width="165.000000pt" height="84.000000pt" viewBox="0 0 165.000000 84.000000"
 preserveAspectRatio="xMidYMid meet">

<g transform="translate(0.000000,84.000000) scale(0.100000,-0.100000)"
fill="#000000" stroke="none">
<path d="M103 824 c-59 -30 -63 -50 -63 -369 0 -314 3 -330 60 -360 44 -23
1406 -23 1450 0 57 30 60 45 60 365 0 257 -2 295 -17 321 -36 61 -15 59 -770
59 -604 0 -692 -2 -720 -16z m1437 -21 c16 -9 33 -27 39 -40 7 -15 11 -124 11
-304 0 -304 -3 -324 -55 -347 -37 -17 -1383 -17 -1420 0 -52 23 -55 43 -55
348 0 303 3 324 54 349 14 6 268 10 709 10 626 1 692 -1 717 -16z"/>
<path d="M165 658 c-4 -18 -9 -41 -11 -50 -8 -27 15 -22 39 8 23 30 74 54 112
54 l25 0 0 -181 c0 -105 -4 -188 -10 -200 -6 -11 -21 -19 -35 -19 -14 0 -25
-4 -25 -10 0 -6 44 -10 112 -10 68 0 108 4 103 9 -6 5 -21 11 -35 13 l-25 3
-3 198 -2 197 30 0 c39 0 82 -22 108 -55 23 -29 46 -33 38 -7 -2 9 -7 32 -11
50 l-7 32 -198 0 -198 0 -7 -32z m34 -7 c-26 -21 -35 -20 -26 4 4 8 16 15 28
15 21 0 21 0 -2 -19z m161 -174 c0 -100 -4 -189 -10 -197 -5 -8 -10 -12 -12
-10 -8 13 4 400 12 395 6 -4 10 -83 10 -188z m187 178 c9 -24 0 -25 -26 -4
-23 19 -23 19 -2 19 12 0 24 -7 28 -15z"/>
<path d="M666 667 c-38 -27 2 -95 42 -71 24 16 28 55 6 71 -10 7 -21 13 -24
13 -3 0 -14 -6 -24 -13z m19 -32 c0 -19 -4 -34 -10 -32 -16 5 -18 49 -3 58 7
5 13 9 13 9 0 0 0 -16 0 -35z"/>
<path d="M837 662 c-31 -34 -14 -72 30 -72 16 0 27 9 35 26 11 23 10 29 -11
45 -29 23 -34 24 -54 1z m18 -32 c0 -16 -3 -30 -7 -30 -10 0 -20 38 -13 50 12
19 20 10 20 -20z"/>
<path d="M663 507 c-42 -16 -43 -19 -20 -40 19 -19 19 -18 12 5 -8 23 -8 23
14 4 18 -16 21 -30 21 -97 0 -42 -3 -84 -6 -93 -9 -23 -24 -19 -25 7 -1 20 -2
20 -6 2 -3 -11 -13 -25 -22 -32 -13 -10 -3 -12 59 -12 64 0 73 1 58 13 -15 11
-18 31 -18 135 0 134 1 133 -67 108z"/>
<path d="M833 508 c-37 -12 -40 -20 -18 -38 11 -9 15 -34 15 -101 0 -79 -2
-89 -22 -103 -21 -15 -18 -16 57 -15 65 0 76 2 58 11 -22 11 -23 16 -23 135 0
136 2 133 -67 111z m25 -129 c2 -69 -1 -99 -10 -107 -10 -8 -12 8 -10 84 2 67
0 100 -9 111 -11 13 -10 15 6 12 18 -4 20 -14 23 -100z"/>
<path d="M1039 497 c-117 -78 -75 -257 60 -257 51 0 121 38 121 66 0 13 -4 13
-30 -1 -56 -29 -110 -12 -135 42 -39 81 18 168 97 151 22 -5 24 -7 32 -40 5
-22 3 -26 -10 -21 -11 4 -14 14 -10 32 5 25 5 26 -6 3 -15 -31 12 -63 40 -46
28 18 26 49 -4 73 -37 29 -110 29 -155 -2z m-9 -37 c-67 -95 -6 -211 104 -197
26 4 35 2 25 -4 -20 -12 -83 -11 -114 3 -69 31 -85 140 -29 199 36 37 41 37
14 -1z"/>
<path d="M1350 513 c-50 -18 -90 -83 -90 -146 0 -90 76 -150 161 -127 21 6 41
14 43 19 3 5 -13 2 -36 -6 -84 -29 -158 27 -158 119 0 25 8 56 20 76 25 40 36
42 15 2 -19 -37 -19 -103 0 -139 18 -36 64 -55 112 -47 21 3 45 7 53 8 17 1
40 29 34 40 -2 4 -17 0 -32 -9 -57 -33 -132 5 -147 75 l-7 32 96 0 c53 0 96 2
96 5 0 3 -6 21 -14 40 -22 51 -90 78 -146 58z m62 -30 c10 -9 18 -24 18 -35 0
-15 -8 -18 -55 -18 -47 0 -54 2 -48 18 9 26 34 52 51 52 9 0 24 -7 34 -17z
m48 -35 c0 -30 -14 -21 -26 17 -11 34 -11 35 7 19 11 -10 19 -25 19 -36z"/>
</g>
</svg>
